<svg width="150" height="151" viewBox="0 0 150 151" fill="none" xmlns="http://www.w3.org/2000/svg">
<path fill-rule="evenodd" clip-rule="evenodd" d="M128.144 21.9023C114.045 7.78542 95.2942 0.00716229 75.315 0C34.1462 0 0.641025 33.5017 0.6267 74.6813C0.619537 87.8454 4.06102 100.695 10.5966 112.018L0 150.723L39.5932 140.338C50.5012 146.29 62.7846 149.423 75.2829 149.427H75.315C116.477 149.427 149.986 115.922 150 74.7421C150.007 54.7846 142.247 36.0228 128.144 21.9059V21.9023ZM75.315 136.814H75.29C64.1525 136.811 53.2267 133.817 43.6937 128.162L41.4268 126.816L17.9308 132.979L24.2014 110.07L22.726 107.721C16.5127 97.8371 13.2287 86.4129 13.2359 74.685C13.2502 40.4598 41.0972 12.6128 75.3404 12.6128C91.9208 12.62 107.506 19.084 119.227 30.8194C130.948 42.5512 137.398 58.1508 137.391 74.735C137.376 108.964 109.53 136.811 75.315 136.811V136.814ZM109.365 90.3237C107.499 89.3892 98.3242 84.8767 96.6121 84.2537C94.9004 83.6304 93.6579 83.3192 92.415 85.1883C91.1725 87.0579 87.595 91.2621 86.5062 92.5046C85.4175 93.7508 84.3287 93.905 82.4629 92.97C80.5975 92.0354 74.5846 90.0658 67.4546 83.7092C61.9075 78.76 58.1613 72.6508 57.0729 70.7812C55.9842 68.9121 56.9583 67.9021 57.8892 66.9746C58.7271 66.1367 59.755 64.7937 60.6896 63.705C61.6246 62.6162 61.9325 61.8358 62.5554 60.5929C63.1787 59.3467 62.8671 58.2583 62.4017 57.3233C61.9358 56.3888 58.2046 47.2029 56.6467 43.4679C55.1317 39.8295 53.5921 40.3237 52.4496 40.2629C51.3608 40.2091 50.1183 40.1984 48.8721 40.1984C47.6258 40.1984 45.6058 40.664 43.8942 42.5333C42.1825 44.4025 37.3621 48.9183 37.3621 58.1004C37.3621 67.2825 44.0483 76.1604 44.9829 77.4067C45.9175 78.6529 58.1433 97.5004 76.8621 105.587C81.3137 107.51 84.7908 108.659 87.5017 109.519C91.9712 110.94 96.0392 110.74 99.255 110.26C102.84 109.723 110.296 105.744 111.85 101.386C113.404 97.0275 113.404 93.2887 112.939 92.5117C112.473 91.7346 111.227 91.2654 109.361 90.3308L109.365 90.3237Z" fill="#111B21"/>
</svg>
