<svg width="15" height="15" viewBox="0 0 15 15" fill="none" xmlns="http://www.w3.org/2000/svg">
<path d="M8.54422 2.14374L9.63954 4.35247C9.7889 4.65993 10.1872 4.95485 10.5233 5.01132L12.5085 5.34389C13.7781 5.55723 14.0768 6.4859 13.162 7.40202L11.6186 8.95817C11.3572 9.22171 11.2141 9.72997 11.295 10.0939L11.7368 12.0203C12.0853 13.5451 11.2825 14.1349 9.94448 13.338L8.08369 12.2273C7.74763 12.0266 7.19375 12.0266 6.85147 12.2273L4.99068 13.338C3.65888 14.1349 2.84984 13.5388 3.19835 12.0203L3.64021 10.0939C3.72111 9.72997 3.57797 9.22171 3.31659 8.95817L1.7732 7.40202C0.864583 6.4859 1.15708 5.55723 2.42665 5.34389L4.41191 5.01132C4.74174 4.95485 5.14004 4.65993 5.2894 4.35247L6.38471 2.14374C6.98216 0.945251 7.953 0.945251 8.54422 2.14374Z" fill="#FFC400"/>
</svg>
