<svg width="48" height="48" viewBox="0 0 48 48" fill="none" xmlns="http://www.w3.org/2000/svg">
<path d="M5.94067 35.6063V25.1639C5.94067 17.9689 5.94067 14.3715 8.11567 12.1363C10.2907 9.90112 13.7913 9.90112 20.7925 9.90112C27.7937 9.90112 31.2943 9.90112 33.4693 12.1363C35.6443 14.3715 35.6443 17.9689 35.6443 25.1639V35.6063C35.6443 40.1724 35.6443 42.4554 34.2095 43.2727C31.4311 44.8552 26.2193 39.5754 23.7443 37.9857C22.3088 37.0637 21.5911 36.6028 20.7925 36.6028C19.9938 36.6028 19.2761 37.0637 17.8407 37.9857C15.3656 39.5754 10.1539 44.8552 7.37545 43.2727C5.94067 42.4554 5.94067 40.1724 5.94067 35.6063Z" stroke="#141B34" stroke-width="2.97036" stroke-linecap="round" stroke-linejoin="round"/>
<path d="M17.8221 3.96021H21.7826C31.1176 3.96021 35.785 3.96021 38.685 6.8602C41.585 9.76019 41.585 14.4277 41.585 23.7626V35.644" stroke="#141B34" stroke-width="2.97036" stroke-linecap="round" stroke-linejoin="round"/>
</svg>
