<svg width="47" height="47" viewBox="0 0 47 47" fill="none" xmlns="http://www.w3.org/2000/svg">
<path d="M4.88515 23.4487L8.79326 25.4028" stroke="#141B34" stroke-width="2.93108" stroke-linecap="round" stroke-linejoin="round"/>
<path d="M42.0122 24.4258L38.1041 25.4028" stroke="#141B34" stroke-width="2.93108" stroke-linecap="round" stroke-linejoin="round"/>
<path d="M15.6324 34.1959L16.1125 32.9958C16.8264 31.2111 17.1833 30.3187 17.9277 29.8147C18.672 29.3108 19.6332 29.3108 21.5554 29.3108H25.342C27.2642 29.3108 28.2253 29.3108 28.9696 29.8147C29.714 30.3187 30.0709 31.2111 30.7848 32.9958L31.2649 34.1959" stroke="#141B34" stroke-width="2.93108" stroke-linecap="round" stroke-linejoin="round"/>
<path d="M3.90811 33.219V38.8505C3.90811 39.5907 4.37856 40.2673 5.12331 40.5983C5.60654 40.813 6.0681 41.0352 6.62538 41.0352H9.9841C10.5414 41.0352 11.0029 40.813 11.4862 40.5983C12.2309 40.2673 12.7014 39.5907 12.7014 38.8505V35.1731" stroke="#141B34" stroke-width="2.93108" stroke-linecap="round" stroke-linejoin="round"/>
<path d="M34.196 35.1731V38.8505C34.196 39.5907 34.6664 40.2673 35.4112 40.5983C35.8944 40.813 36.356 41.0352 36.9132 41.0352H40.272C40.8293 41.0352 41.2908 40.813 41.774 40.5983C42.5188 40.2673 42.9892 39.5907 42.9892 38.8505V33.219" stroke="#141B34" stroke-width="2.93108" stroke-linecap="round" stroke-linejoin="round"/>
<path d="M39.0811 16.6094L41.0352 15.6323" stroke="#141B34" stroke-width="2.93108" stroke-linecap="round" stroke-linejoin="round"/>
<path d="M7.81622 16.6094L5.86217 15.6323" stroke="#141B34" stroke-width="2.93108" stroke-linecap="round" stroke-linejoin="round"/>
<path d="M8.79326 17.5864L10.9199 11.2066C11.7797 8.62715 12.2096 7.33743 13.2331 6.59975C14.2566 5.86206 15.616 5.86206 18.335 5.86206H28.5624C31.2813 5.86206 32.6408 5.86206 33.6643 6.59975C34.6878 7.33743 35.1177 8.62715 35.9775 11.2066L38.1041 17.5864" stroke="#141B34" stroke-width="2.93108" stroke-linejoin="round"/>
<path d="M8.79325 17.5864H38.1041C39.9745 19.5669 42.9892 22.3249 42.9892 25.4019V32.1836C42.9892 33.2983 42.2476 34.2366 41.2635 34.3668L35.173 35.1729H11.7243L5.63385 34.3668C4.64977 34.2366 3.90811 33.2983 3.90811 32.1836V25.4019C3.90811 22.3249 6.9228 19.5669 8.79325 17.5864Z" stroke="#141B34" stroke-width="2.93108" stroke-linejoin="round"/>
</svg>
