<svg width="47" height="47" viewBox="0 0 47 47" fill="none" xmlns="http://www.w3.org/2000/svg">
<path d="M3.90815 23.4492C3.90815 12.6571 12.6569 3.90836 23.449 3.90836C34.2411 3.90836 42.9898 12.6571 42.9898 23.4492C42.9898 34.2413 34.2411 42.99 23.449 42.99C12.6569 42.99 3.90815 34.2413 3.90815 23.4492Z" stroke="#141B34" stroke-width="2.89448"/>
<path d="M7.81634 11.1363C9.64288 11.268 11.9823 11.9751 13.6045 14.0748C16.5346 17.8674 19.4646 18.1839 21.4179 16.9197C24.348 15.0234 21.8857 11.9519 25.3246 10.2827C27.566 9.19482 27.8785 6.23445 26.631 3.9082" stroke="#141B34" stroke-width="2.89448" stroke-linejoin="round"/>
<path d="M42.9898 21.4946C41.4998 22.7885 39.4129 23.9728 36.9541 23.9728C31.8741 23.9728 30.8581 24.9434 30.8581 28.8259C30.8581 32.7085 30.8581 32.7085 29.8421 35.6204C29.1813 37.5144 28.9502 39.4085 30.2675 41.0354" stroke="#141B34" stroke-width="2.89448" stroke-linejoin="round"/>
<path d="M3.90816 26.287C5.64162 25.2879 7.81632 24.877 10.0178 26.4592C14.2303 29.4868 17.1346 26.9781 18.4428 29.4851C20.3684 33.1754 13.4915 34.3354 19.5408 42.9898" stroke="#141B34" stroke-width="2.89448" stroke-linejoin="round"/>
</svg>
