<svg width="47" height="47" viewBox="0 0 47 47" fill="none" xmlns="http://www.w3.org/2000/svg">
<path d="M42.9897 22.6023C42.9897 32.9261 34.2398 41.2965 23.4489 41.2965C22.1801 41.2981 20.9149 41.1808 19.6686 40.9468C18.7715 40.7783 18.3229 40.694 18.0098 40.7419C17.6966 40.7897 17.2529 41.0257 16.3653 41.4977C13.8546 42.8329 10.927 43.3044 8.11153 42.7807C9.18164 41.4645 9.91248 39.8852 10.235 38.1921C10.4304 37.1566 9.94619 36.1505 9.22101 35.4141C5.9273 32.0695 3.90808 27.5625 3.90808 22.6023C3.90808 12.2786 12.658 3.9082 23.4489 3.9082C34.2398 3.9082 42.9897 12.2786 42.9897 22.6023Z" stroke="#141B34" stroke-width="2.70706" stroke-linejoin="round"/>
<path d="M23.4401 23.4487H23.4577M31.2477 23.4487H31.2652M15.6326 23.4487H15.6501" stroke="#141B34" stroke-width="3.60941" stroke-linecap="round" stroke-linejoin="round"/>
</svg>
